<svg xmlns="http://www.w3.org/2000/svg" viewBox="0 0 64 64" role="img">
  <rect width="64" height="64" rx="14" fill="#0b3b75"/>
  <path d="M18 42c-2.2-2.2-3.3-5.2-3.3-9s1.1-6.8 3.3-9 5.1-3.3 8.8-3.3c2.4 0 4.5.5 6.3 1.5 1.8 1 3.1 2.4 4 4.2l-5.1 2.8c-1.1-2.1-2.8-3.1-5.1-3.1-1.8 0-3.2.6-4.2 1.8-1 1.2-1.5 2.9-1.5 5.1s.5 3.9 1.5 5.1c1 1.2 2.4 1.8 4.2 1.8 2.3 0 4-1 5.1-3.1l5.1 2.8c-.9 1.8-2.2 3.2-4 4.2-1.8 1-3.9 1.5-6.3 1.5-3.7 0-6.6-1.1-8.8-3.3zm19.4 0c-2.2-2.2-3.3-5.2-3.3-9s1.1-6.8 3.3-9 5.1-3.3 8.8-3.3c1.2 0 2.3.1 3.3.4v5.6c-.9-.4-1.9-.6-3.1-.6-1.8 0-3.2.6-4.2 1.8-1 1.2-1.5 2.9-1.5 5.1s.5 3.9 1.5 5.1c1 1.2 2.4 1.8 4.2 1.8 1.2 0 2.2-.2 3.1-.6v5.6c-1 .3-2.1.4-3.3.4-3.7 0-6.6-1.1-8.8-3.3z" fill="#ffffff"/>
</svg>
